<mxfile host="app.diagrams.net" modified="2024-03-05T12:27:50.702Z" agent="Mozilla/5.0 (Windows NT 10.0; Win64; x64) AppleWebKit/537.36 (KHTML, like Gecko) Chrome/122.0.0.0 Safari/537.36" version="24.0.1" etag="esJO9i8WXdGmYAvP6tN7" type="device">
  <diagram id="mUMO7H1rQdNygUA0p2jK" name="Page-1">
    <mxGraphModel dx="1912" dy="984" grid="1" gridSize="10" guides="1" tooltips="1" connect="1" arrows="1" fold="1" page="1" pageScale="1" pageWidth="827" pageHeight="1169" math="0" shadow="0">
      <root>
        <mxCell id="0" />
        <mxCell id="1" parent="0" />
        <mxCell id="p4Pve5kmI4_MnU4bVX2u-6" value="" style="rounded=0;whiteSpace=wrap;html=1;" vertex="1" parent="1">
          <mxGeometry x="160" y="40" width="360" height="490" as="geometry" />
        </mxCell>
        <mxCell id="p4Pve5kmI4_MnU4bVX2u-2" value="Pustakawan" style="shape=umlActor;verticalLabelPosition=bottom;verticalAlign=top;html=1;outlineConnect=0;" vertex="1" parent="1">
          <mxGeometry x="620" y="220" width="30" height="60" as="geometry" />
        </mxCell>
        <mxCell id="p4Pve5kmI4_MnU4bVX2u-4" value="&lt;span style=&quot;font-size: 14px;&quot;&gt;&lt;b style=&quot;font-size: 14px;&quot;&gt;CMS / Dashboard Admin&lt;/b&gt;&lt;/span&gt;" style="text;html=1;align=center;verticalAlign=middle;whiteSpace=wrap;rounded=0;fontSize=14;" vertex="1" parent="1">
          <mxGeometry x="150" y="50" width="230" height="20" as="geometry" />
        </mxCell>
        <mxCell id="p4Pve5kmI4_MnU4bVX2u-25" style="rounded=0;orthogonalLoop=1;jettySize=auto;html=1;endArrow=none;endFill=0;" edge="1" parent="1" target="p4Pve5kmI4_MnU4bVX2u-14">
          <mxGeometry relative="1" as="geometry">
            <mxPoint x="100" y="210" as="sourcePoint" />
          </mxGeometry>
        </mxCell>
        <mxCell id="p4Pve5kmI4_MnU4bVX2u-7" value="Pemilik" style="shape=umlActor;verticalLabelPosition=bottom;verticalAlign=top;html=1;outlineConnect=0;" vertex="1" parent="1">
          <mxGeometry x="60" y="180" width="30" height="60" as="geometry" />
        </mxCell>
        <mxCell id="p4Pve5kmI4_MnU4bVX2u-12" value="Management Genre" style="ellipse;whiteSpace=wrap;html=1;" vertex="1" parent="1">
          <mxGeometry x="280" y="320" width="105" height="40" as="geometry" />
        </mxCell>
        <mxCell id="p4Pve5kmI4_MnU4bVX2u-13" value="Management Pengaduan" style="ellipse;whiteSpace=wrap;html=1;" vertex="1" parent="1">
          <mxGeometry x="284" y="450" width="125" height="40" as="geometry" />
        </mxCell>
        <mxCell id="p4Pve5kmI4_MnU4bVX2u-14" value="Login" style="ellipse;whiteSpace=wrap;html=1;" vertex="1" parent="1">
          <mxGeometry x="257.5" y="110" width="100" height="30" as="geometry" />
        </mxCell>
        <mxCell id="p4Pve5kmI4_MnU4bVX2u-15" value="Management Anggota" style="ellipse;whiteSpace=wrap;html=1;" vertex="1" parent="1">
          <mxGeometry x="357.5" y="200" width="110" height="40" as="geometry" />
        </mxCell>
        <mxCell id="p4Pve5kmI4_MnU4bVX2u-21" value="Management Pustakawan" style="ellipse;whiteSpace=wrap;html=1;" vertex="1" parent="1">
          <mxGeometry x="245" y="160" width="125" height="40" as="geometry" />
        </mxCell>
        <mxCell id="p4Pve5kmI4_MnU4bVX2u-23" value="Management Pinjaman" style="ellipse;whiteSpace=wrap;html=1;" vertex="1" parent="1">
          <mxGeometry x="340" y="270" width="120" height="40" as="geometry" />
        </mxCell>
        <mxCell id="p4Pve5kmI4_MnU4bVX2u-24" value="Management Kehilangan" style="ellipse;whiteSpace=wrap;html=1;" vertex="1" parent="1">
          <mxGeometry x="284" y="390" width="130" height="40" as="geometry" />
        </mxCell>
        <mxCell id="p4Pve5kmI4_MnU4bVX2u-27" style="rounded=0;orthogonalLoop=1;jettySize=auto;html=1;endArrow=none;endFill=0;entryX=0;entryY=0.5;entryDx=0;entryDy=0;" edge="1" parent="1" target="p4Pve5kmI4_MnU4bVX2u-15">
          <mxGeometry relative="1" as="geometry">
            <mxPoint x="100" y="210" as="sourcePoint" />
            <mxPoint x="194" y="177" as="targetPoint" />
          </mxGeometry>
        </mxCell>
        <mxCell id="p4Pve5kmI4_MnU4bVX2u-28" style="rounded=0;orthogonalLoop=1;jettySize=auto;html=1;endArrow=none;endFill=0;entryX=0;entryY=0.5;entryDx=0;entryDy=0;" edge="1" parent="1" target="p4Pve5kmI4_MnU4bVX2u-21">
          <mxGeometry relative="1" as="geometry">
            <mxPoint x="100" y="210" as="sourcePoint" />
            <mxPoint x="185" y="255" as="targetPoint" />
          </mxGeometry>
        </mxCell>
        <mxCell id="p4Pve5kmI4_MnU4bVX2u-29" style="rounded=0;orthogonalLoop=1;jettySize=auto;html=1;endArrow=none;endFill=0;entryX=0;entryY=0.5;entryDx=0;entryDy=0;" edge="1" parent="1" target="p4Pve5kmI4_MnU4bVX2u-11">
          <mxGeometry relative="1" as="geometry">
            <mxPoint x="100" y="210" as="sourcePoint" />
            <mxPoint x="195" y="265" as="targetPoint" />
          </mxGeometry>
        </mxCell>
        <mxCell id="p4Pve5kmI4_MnU4bVX2u-35" style="rounded=0;orthogonalLoop=1;jettySize=auto;html=1;endArrow=none;endFill=0;" edge="1" parent="1" target="p4Pve5kmI4_MnU4bVX2u-12">
          <mxGeometry relative="1" as="geometry">
            <mxPoint x="100" y="210" as="sourcePoint" />
            <mxPoint x="355" y="275" as="targetPoint" />
          </mxGeometry>
        </mxCell>
        <mxCell id="p4Pve5kmI4_MnU4bVX2u-37" style="rounded=0;orthogonalLoop=1;jettySize=auto;html=1;endArrow=none;endFill=0;entryX=0;entryY=0;entryDx=0;entryDy=0;" edge="1" parent="1" target="p4Pve5kmI4_MnU4bVX2u-24">
          <mxGeometry relative="1" as="geometry">
            <mxPoint x="100" y="210" as="sourcePoint" />
            <mxPoint x="375" y="295" as="targetPoint" />
          </mxGeometry>
        </mxCell>
        <mxCell id="p4Pve5kmI4_MnU4bVX2u-38" style="rounded=0;orthogonalLoop=1;jettySize=auto;html=1;endArrow=none;endFill=0;entryX=0.116;entryY=0.15;entryDx=0;entryDy=0;entryPerimeter=0;" edge="1" parent="1" target="p4Pve5kmI4_MnU4bVX2u-13">
          <mxGeometry relative="1" as="geometry">
            <mxPoint x="100" y="210" as="sourcePoint" />
            <mxPoint x="385" y="305" as="targetPoint" />
          </mxGeometry>
        </mxCell>
        <mxCell id="p4Pve5kmI4_MnU4bVX2u-49" style="rounded=0;orthogonalLoop=1;jettySize=auto;html=1;endArrow=none;endFill=0;exitX=1;exitY=0.5;exitDx=0;exitDy=0;" edge="1" parent="1" source="p4Pve5kmI4_MnU4bVX2u-15">
          <mxGeometry relative="1" as="geometry">
            <mxPoint x="150" y="440" as="sourcePoint" />
            <mxPoint x="600" y="260" as="targetPoint" />
          </mxGeometry>
        </mxCell>
        <mxCell id="p4Pve5kmI4_MnU4bVX2u-50" style="rounded=0;orthogonalLoop=1;jettySize=auto;html=1;endArrow=none;endFill=0;exitX=1;exitY=0.5;exitDx=0;exitDy=0;" edge="1" parent="1" source="p4Pve5kmI4_MnU4bVX2u-11">
          <mxGeometry relative="1" as="geometry">
            <mxPoint x="160" y="450" as="sourcePoint" />
            <mxPoint x="600" y="260" as="targetPoint" />
          </mxGeometry>
        </mxCell>
        <mxCell id="p4Pve5kmI4_MnU4bVX2u-51" style="rounded=0;orthogonalLoop=1;jettySize=auto;html=1;endArrow=none;endFill=0;exitX=1;exitY=0.5;exitDx=0;exitDy=0;" edge="1" parent="1" source="p4Pve5kmI4_MnU4bVX2u-14">
          <mxGeometry relative="1" as="geometry">
            <mxPoint x="170" y="460" as="sourcePoint" />
            <mxPoint x="600" y="260" as="targetPoint" />
          </mxGeometry>
        </mxCell>
        <mxCell id="p4Pve5kmI4_MnU4bVX2u-11" value="Management Buku" style="ellipse;whiteSpace=wrap;html=1;" vertex="1" parent="1">
          <mxGeometry x="222.5" y="230" width="135" height="40" as="geometry" />
        </mxCell>
        <mxCell id="p4Pve5kmI4_MnU4bVX2u-54" style="rounded=0;orthogonalLoop=1;jettySize=auto;html=1;endArrow=none;endFill=0;exitX=1;exitY=0.5;exitDx=0;exitDy=0;" edge="1" parent="1" source="p4Pve5kmI4_MnU4bVX2u-23">
          <mxGeometry relative="1" as="geometry">
            <mxPoint x="364" y="270" as="sourcePoint" />
            <mxPoint x="600" y="260" as="targetPoint" />
          </mxGeometry>
        </mxCell>
        <mxCell id="p4Pve5kmI4_MnU4bVX2u-55" style="rounded=0;orthogonalLoop=1;jettySize=auto;html=1;endArrow=none;endFill=0;exitX=1;exitY=0.5;exitDx=0;exitDy=0;" edge="1" parent="1" source="p4Pve5kmI4_MnU4bVX2u-12">
          <mxGeometry relative="1" as="geometry">
            <mxPoint x="374" y="280" as="sourcePoint" />
            <mxPoint x="600" y="260" as="targetPoint" />
          </mxGeometry>
        </mxCell>
        <mxCell id="p4Pve5kmI4_MnU4bVX2u-56" style="rounded=0;orthogonalLoop=1;jettySize=auto;html=1;endArrow=none;endFill=0;exitX=1;exitY=0.5;exitDx=0;exitDy=0;" edge="1" parent="1" source="p4Pve5kmI4_MnU4bVX2u-24">
          <mxGeometry relative="1" as="geometry">
            <mxPoint x="384" y="290" as="sourcePoint" />
            <mxPoint x="600" y="260" as="targetPoint" />
          </mxGeometry>
        </mxCell>
        <mxCell id="p4Pve5kmI4_MnU4bVX2u-57" style="rounded=0;orthogonalLoop=1;jettySize=auto;html=1;endArrow=none;endFill=0;exitX=0.992;exitY=0.35;exitDx=0;exitDy=0;exitPerimeter=0;" edge="1" parent="1" source="p4Pve5kmI4_MnU4bVX2u-13">
          <mxGeometry relative="1" as="geometry">
            <mxPoint x="394" y="300" as="sourcePoint" />
            <mxPoint x="600" y="260" as="targetPoint" />
          </mxGeometry>
        </mxCell>
        <mxCell id="p4Pve5kmI4_MnU4bVX2u-58" style="rounded=0;orthogonalLoop=1;jettySize=auto;html=1;endArrow=none;endFill=0;entryX=0;entryY=0.5;entryDx=0;entryDy=0;" edge="1" parent="1" target="p4Pve5kmI4_MnU4bVX2u-23">
          <mxGeometry relative="1" as="geometry">
            <mxPoint x="100" y="210" as="sourcePoint" />
            <mxPoint x="650" y="310" as="targetPoint" />
          </mxGeometry>
        </mxCell>
        <mxCell id="p4Pve5kmI4_MnU4bVX2u-60" value="" style="rounded=0;whiteSpace=wrap;html=1;" vertex="1" parent="1">
          <mxGeometry x="160" y="610" width="360" height="370" as="geometry" />
        </mxCell>
        <mxCell id="p4Pve5kmI4_MnU4bVX2u-61" value="Anggota" style="shape=umlActor;verticalLabelPosition=bottom;verticalAlign=top;html=1;outlineConnect=0;" vertex="1" parent="1">
          <mxGeometry x="70" y="720" width="30" height="60" as="geometry" />
        </mxCell>
        <mxCell id="p4Pve5kmI4_MnU4bVX2u-62" value="Melihat Informasi Perpustakaan" style="ellipse;whiteSpace=wrap;html=1;" vertex="1" parent="1">
          <mxGeometry x="279" y="670" width="135" height="50" as="geometry" />
        </mxCell>
        <mxCell id="p4Pve5kmI4_MnU4bVX2u-63" value="&lt;b&gt;Website Perpustakaan&lt;/b&gt;" style="text;html=1;align=center;verticalAlign=middle;whiteSpace=wrap;rounded=0;fontSize=14;" vertex="1" parent="1">
          <mxGeometry x="140" y="620" width="230" height="20" as="geometry" />
        </mxCell>
        <mxCell id="p4Pve5kmI4_MnU4bVX2u-64" value="Login" style="ellipse;whiteSpace=wrap;html=1;" vertex="1" parent="1">
          <mxGeometry x="212.5" y="735" width="115" height="30" as="geometry" />
        </mxCell>
        <mxCell id="p4Pve5kmI4_MnU4bVX2u-65" value="Register" style="ellipse;whiteSpace=wrap;html=1;" vertex="1" parent="1">
          <mxGeometry x="370" y="735" width="110" height="30" as="geometry" />
        </mxCell>
        <mxCell id="p4Pve5kmI4_MnU4bVX2u-68" value="Pengunjung (User)" style="shape=umlActor;verticalLabelPosition=bottom;verticalAlign=top;html=1;outlineConnect=0;" vertex="1" parent="1">
          <mxGeometry x="580" y="705" width="30" height="60" as="geometry" />
        </mxCell>
        <mxCell id="p4Pve5kmI4_MnU4bVX2u-69" value="Melihat Daftar Buku" style="ellipse;whiteSpace=wrap;html=1;" vertex="1" parent="1">
          <mxGeometry x="261.5" y="780" width="142" height="40" as="geometry" />
        </mxCell>
        <mxCell id="p4Pve5kmI4_MnU4bVX2u-72" value="Management Pinjaman" style="ellipse;whiteSpace=wrap;html=1;" vertex="1" parent="1">
          <mxGeometry x="330" y="830" width="140" height="40" as="geometry" />
        </mxCell>
        <mxCell id="p4Pve5kmI4_MnU4bVX2u-73" value="Melihat Notifikasi" style="ellipse;whiteSpace=wrap;html=1;" vertex="1" parent="1">
          <mxGeometry x="180" y="880" width="130" height="40" as="geometry" />
        </mxCell>
        <mxCell id="p4Pve5kmI4_MnU4bVX2u-74" value="Membuat Aduan" style="ellipse;whiteSpace=wrap;html=1;" vertex="1" parent="1">
          <mxGeometry x="357.5" y="890" width="125" height="40" as="geometry" />
        </mxCell>
        <mxCell id="p4Pve5kmI4_MnU4bVX2u-76" value="" style="endArrow=none;html=1;rounded=0;entryX=0;entryY=0.5;entryDx=0;entryDy=0;" edge="1" parent="1" target="p4Pve5kmI4_MnU4bVX2u-62">
          <mxGeometry width="50" height="50" relative="1" as="geometry">
            <mxPoint x="120" y="750" as="sourcePoint" />
            <mxPoint x="400" y="750" as="targetPoint" />
          </mxGeometry>
        </mxCell>
        <mxCell id="p4Pve5kmI4_MnU4bVX2u-77" value="" style="endArrow=none;html=1;rounded=0;entryX=0;entryY=0.5;entryDx=0;entryDy=0;" edge="1" parent="1" target="p4Pve5kmI4_MnU4bVX2u-64">
          <mxGeometry width="50" height="50" relative="1" as="geometry">
            <mxPoint x="120" y="750" as="sourcePoint" />
            <mxPoint x="275" y="705" as="targetPoint" />
          </mxGeometry>
        </mxCell>
        <mxCell id="p4Pve5kmI4_MnU4bVX2u-78" value="" style="endArrow=none;html=1;rounded=0;entryX=0;entryY=0.5;entryDx=0;entryDy=0;" edge="1" parent="1" target="p4Pve5kmI4_MnU4bVX2u-69">
          <mxGeometry width="50" height="50" relative="1" as="geometry">
            <mxPoint x="120" y="750" as="sourcePoint" />
            <mxPoint x="285" y="715" as="targetPoint" />
          </mxGeometry>
        </mxCell>
        <mxCell id="p4Pve5kmI4_MnU4bVX2u-79" value="" style="endArrow=none;html=1;rounded=0;entryX=0;entryY=0;entryDx=0;entryDy=0;" edge="1" parent="1" target="p4Pve5kmI4_MnU4bVX2u-73">
          <mxGeometry width="50" height="50" relative="1" as="geometry">
            <mxPoint x="120" y="750" as="sourcePoint" />
            <mxPoint x="295" y="725" as="targetPoint" />
          </mxGeometry>
        </mxCell>
        <mxCell id="p4Pve5kmI4_MnU4bVX2u-80" value="" style="endArrow=none;html=1;rounded=0;entryX=0;entryY=0.5;entryDx=0;entryDy=0;" edge="1" parent="1" target="p4Pve5kmI4_MnU4bVX2u-74">
          <mxGeometry width="50" height="50" relative="1" as="geometry">
            <mxPoint x="120" y="750" as="sourcePoint" />
            <mxPoint x="305" y="735" as="targetPoint" />
          </mxGeometry>
        </mxCell>
        <mxCell id="p4Pve5kmI4_MnU4bVX2u-81" value="" style="endArrow=none;html=1;rounded=0;exitX=1;exitY=0.5;exitDx=0;exitDy=0;" edge="1" parent="1" source="p4Pve5kmI4_MnU4bVX2u-65">
          <mxGeometry width="50" height="50" relative="1" as="geometry">
            <mxPoint x="170" y="800" as="sourcePoint" />
            <mxPoint x="560" y="740" as="targetPoint" />
          </mxGeometry>
        </mxCell>
        <mxCell id="p4Pve5kmI4_MnU4bVX2u-82" value="" style="endArrow=none;html=1;rounded=0;exitX=1;exitY=0.5;exitDx=0;exitDy=0;" edge="1" parent="1" source="p4Pve5kmI4_MnU4bVX2u-62">
          <mxGeometry width="50" height="50" relative="1" as="geometry">
            <mxPoint x="180" y="810" as="sourcePoint" />
            <mxPoint x="560" y="740" as="targetPoint" />
          </mxGeometry>
        </mxCell>
        <mxCell id="p4Pve5kmI4_MnU4bVX2u-83" value="" style="endArrow=none;html=1;rounded=0;entryX=0;entryY=0.5;entryDx=0;entryDy=0;" edge="1" parent="1" target="p4Pve5kmI4_MnU4bVX2u-72">
          <mxGeometry width="50" height="50" relative="1" as="geometry">
            <mxPoint x="120" y="750" as="sourcePoint" />
            <mxPoint x="335" y="765" as="targetPoint" />
          </mxGeometry>
        </mxCell>
      </root>
    </mxGraphModel>
  </diagram>
</mxfile>
